<svg xmlns="http://www.w3.org/2000/svg" viewBox="0 0 380 96" width="380" height="96" role="img" aria-label="JS Soluções"><title>JS Soluções</title><rect x="8" y="48" width="15" height="26" rx="3.5" fill="#86EFAC"/><rect x="29" y="30" width="15" height="44" rx="3.5" fill="#34D399"/><rect x="50" y="10" width="15" height="64" rx="3.5" fill="#16A34A"/><polyline points="13,44 36,24 57,16 72,2" fill="none" stroke="#16A34A" stroke-width="3.2" stroke-linecap="round" stroke-linejoin="round"/><polygon points="72,2 61,5 69,13" fill="#16A34A"/><path transform="translate(110.00,56)" d="M11.77 0.45Q6.85 0.45 4.21 -1.68Q1.57 -3.82 0.70 -8.58L7.28 -9.54Q7.68 -7.10 8.78 -5.92Q9.88 -4.74 11.82 -4.74Q13.79 -4.74 14.81 -6.06Q15.83 -7.39 15.83 -9.86L15.83 -26.46L9.52 -26.46L9.52 -31.65L22.44 -31.65L22.44 -10.02Q22.44 -5.07 19.63 -2.31Q16.83 0.45 11.77 0.45ZM54.47 -9.12Q54.47 -4.47 51.02 -2.01Q47.57 0.45 40.90 0.45Q34.81 0.45 31.35 -1.70Q27.90 -3.87 26.91 -8.24L33.31 -9.30Q33.96 -6.79 35.85 -5.65Q37.74 -4.51 41.08 -4.51Q48.02 -4.51 48.02 -8.74Q48.02 -10.08 47.22 -10.96Q46.43 -11.84 44.97 -12.42Q43.53 -13.00 39.42 -13.84Q35.87 -14.67 34.47 -15.17Q33.09 -15.68 31.96 -16.36Q30.84 -17.05 30.05 -18.01Q29.27 -18.98 28.83 -20.28Q28.39 -21.58 28.39 -23.27Q28.39 -27.56 31.61 -29.84Q34.84 -32.12 40.99 -32.12Q46.88 -32.12 49.83 -30.27Q52.78 -28.43 53.64 -24.19L47.21 -23.32Q46.72 -25.36 45.20 -26.39Q43.69 -27.43 40.86 -27.43Q34.84 -27.43 34.84 -23.65Q34.84 -22.42 35.48 -21.63Q36.12 -20.84 37.38 -20.29Q38.64 -19.74 42.47 -18.91Q47.03 -17.95 48.99 -17.13Q50.96 -16.31 52.10 -15.22Q53.25 -14.13 53.86 -12.61Q54.47 -11.10 54.47 -9.12Z" fill="#16A34A"/><path transform="translate(178.47,56)" d="M28.57 -8.74Q28.57 -4.36 25.14 -1.95Q21.72 0.45 15.50 0.45Q3.93 0.45 2.09 -7.59L6.25 -8.42Q6.96 -5.57 9.30 -4.23Q11.64 -2.90 15.65 -2.90Q19.81 -2.90 22.07 -4.32Q24.32 -5.75 24.32 -8.51Q24.32 -10.06 23.62 -11.03Q22.91 -12.00 21.63 -12.62Q20.35 -13.25 18.57 -13.68Q16.80 -14.11 14.65 -14.60Q10.90 -15.43 8.95 -16.26Q7.01 -17.09 5.89 -18.11Q4.77 -19.14 4.17 -20.51Q3.57 -21.88 3.57 -23.65Q3.57 -27.71 6.68 -29.91Q9.80 -32.12 15.59 -32.12Q20.98 -32.12 23.83 -30.47Q26.69 -28.81 27.83 -24.84L23.60 -24.10Q22.91 -26.62 20.96 -27.75Q19.00 -28.89 15.55 -28.89Q11.74 -28.89 9.75 -27.63Q7.75 -26.37 7.75 -23.88Q7.75 -22.42 8.52 -21.46Q9.30 -20.51 10.76 -19.84Q12.22 -19.18 16.57 -18.21Q18.03 -17.88 19.49 -17.53Q20.94 -17.19 22.26 -16.70Q23.58 -16.21 24.74 -15.56Q25.90 -14.91 26.75 -13.97Q27.61 -13.03 28.09 -11.74Q28.57 -10.46 28.57 -8.74ZM54.34 -12.18Q54.34 -5.79 51.53 -2.67Q48.72 0.45 43.37 0.45Q38.05 0.45 35.33 -2.80Q32.62 -6.04 32.62 -12.18Q32.62 -24.75 43.50 -24.75Q49.07 -24.75 51.71 -21.68Q54.34 -18.62 54.34 -12.18ZM50.09 -12.18Q50.09 -17.21 48.59 -19.49Q47.10 -21.76 43.58 -21.76Q40.03 -21.76 38.44 -19.44Q36.86 -17.11 36.86 -12.18Q36.86 -7.37 38.42 -4.95Q39.98 -2.54 43.32 -2.54Q46.97 -2.54 48.53 -4.87Q50.09 -7.21 50.09 -12.18ZM59.36 0.00L59.36 -33.34L63.41 -33.34L63.41 0.00L59.36 0.00ZM73.54 -24.30L73.54 -8.90Q73.54 -6.49 74.01 -5.16Q74.48 -3.84 75.51 -3.26Q76.55 -2.67 78.55 -2.67Q81.46 -2.67 83.15 -4.67Q84.83 -6.67 84.83 -10.22L84.83 -24.30L88.88 -24.30L88.88 -5.19Q88.88 -0.94 89.01 0.00L85.19 0.00Q85.17 -0.12 85.15 -0.60Q85.13 -1.10 85.09 -1.74Q85.06 -2.38 85.01 -4.15L84.95 -4.15Q83.55 -1.64 81.72 -0.59Q79.90 0.45 77.18 0.45Q73.18 0.45 71.32 -1.54Q69.47 -3.53 69.47 -8.11L69.47 -24.30L73.54 -24.30ZM98.24 -12.26Q98.24 -7.41 99.77 -5.07Q101.30 -2.74 104.38 -2.74Q106.54 -2.74 107.98 -3.90Q109.43 -5.07 109.77 -7.50L113.85 -7.23Q113.39 -3.73 110.87 -1.64Q108.35 0.45 104.49 0.45Q99.39 0.45 96.70 -2.77Q94.02 -5.99 94.02 -12.18Q94.02 -18.31 96.72 -21.53Q99.41 -24.75 104.44 -24.75Q108.17 -24.75 110.63 -22.82Q113.09 -20.89 113.72 -17.49L109.56 -17.19Q109.25 -19.21 107.97 -20.39Q106.69 -21.58 104.33 -21.58Q101.12 -21.58 99.68 -19.45Q98.24 -17.31 98.24 -12.26ZM108.95 5.69Q108.95 9.75 102.80 9.75Q101.52 9.75 100.78 9.66L100.78 7.46Q101.88 7.59 102.71 7.59Q106.01 7.59 106.01 5.77Q106.01 4.05 103.02 4.05Q102.06 4.05 101.74 4.09L103.20 0.00L105.61 0.00L104.73 2.25Q106.84 2.31 107.89 3.22Q108.95 4.13 108.95 5.69ZM138.72 -12.18Q138.72 -5.79 135.91 -2.67Q133.10 0.45 127.76 0.45Q122.43 0.45 119.72 -2.80Q117.00 -6.04 117.00 -12.18Q117.00 -24.75 127.89 -24.75Q133.46 -24.75 136.09 -21.68Q138.72 -18.62 138.72 -12.18ZM134.47 -12.18Q134.47 -17.21 132.98 -19.49Q131.48 -21.76 127.96 -21.76Q124.41 -21.76 122.82 -19.44Q121.24 -17.11 121.24 -12.18Q121.24 -7.37 122.80 -4.95Q124.37 -2.54 127.71 -2.54Q131.35 -2.54 132.91 -4.87Q134.47 -7.21 134.47 -12.18ZM131.64 -26.97Q130.69 -26.97 129.75 -27.39Q128.81 -27.81 127.93 -28.31Q127.06 -28.81 126.26 -29.23Q125.46 -29.65 124.76 -29.65Q123.53 -29.65 122.92 -28.95Q122.32 -28.25 122.12 -26.97L120.07 -26.97Q120.32 -29.27 120.86 -30.45Q121.40 -31.62 122.31 -32.31Q123.22 -33.00 124.63 -33.00Q125.62 -33.00 126.56 -32.58Q127.51 -32.16 128.38 -31.65Q129.26 -31.15 130.03 -30.73Q130.81 -30.32 131.48 -30.32Q133.73 -30.32 134.11 -33.00L136.18 -33.00Q135.80 -29.67 134.67 -28.32Q133.55 -26.97 131.64 -26.97ZM146.85 -11.30Q146.85 -7.12 148.58 -4.85Q150.31 -2.58 153.63 -2.58Q156.26 -2.58 157.84 -3.64Q159.43 -4.69 159.99 -6.31L163.54 -5.30Q161.36 0.45 153.63 0.45Q148.24 0.45 145.42 -2.76Q142.61 -5.97 142.61 -12.31Q142.61 -18.33 145.42 -21.54Q148.24 -24.75 153.47 -24.75Q164.19 -24.75 164.19 -11.84L164.19 -11.30L146.85 -11.30ZM160.01 -14.40Q159.68 -18.24 158.06 -20.00Q156.44 -21.76 153.41 -21.76Q150.47 -21.76 148.75 -19.79Q147.03 -17.83 146.90 -14.40L160.01 -14.40ZM187.57 -6.71Q187.57 -3.28 184.98 -1.41Q182.38 0.45 177.71 0.45Q173.18 0.45 170.71 -1.04Q168.25 -2.54 167.51 -5.71L171.08 -6.40Q171.60 -4.45 173.22 -3.54Q174.84 -2.63 177.71 -2.63Q180.79 -2.63 182.21 -3.57Q183.64 -4.51 183.64 -6.40Q183.64 -7.84 182.65 -8.74Q181.66 -9.64 179.47 -10.22L176.57 -10.98Q173.08 -11.88 171.61 -12.74Q170.14 -13.61 169.31 -14.85Q168.48 -16.09 168.48 -17.88Q168.48 -21.20 170.85 -22.94Q173.22 -24.68 177.75 -24.68Q181.78 -24.68 184.14 -23.27Q186.52 -21.86 187.14 -18.73L183.50 -18.29Q183.17 -19.90 181.69 -20.76Q180.23 -21.63 177.75 -21.63Q175.02 -21.63 173.71 -20.79Q172.41 -19.97 172.41 -18.29Q172.41 -17.25 172.95 -16.57Q173.49 -15.91 174.54 -15.43Q175.60 -14.96 178.99 -14.13Q182.20 -13.32 183.62 -12.64Q185.04 -11.95 185.86 -11.12Q186.67 -10.29 187.12 -9.19Q187.57 -8.11 187.57 -6.71Z" fill="#F1F5F9"/><path transform="translate(112.00,82)" d="M8.07 -2.47Q8.07 -1.23 7.11 -0.55Q6.14 0.13 4.38 0.13Q1.11 0.13 0.59 -2.15L1.77 -2.38Q1.97 -1.57 2.63 -1.20Q3.29 -0.82 4.42 -0.82Q5.60 -0.82 6.24 -1.22Q6.87 -1.62 6.87 -2.41Q6.87 -2.84 6.67 -3.12Q6.48 -3.39 6.11 -3.57Q5.75 -3.75 5.25 -3.87Q4.75 -3.99 4.14 -4.13Q3.08 -4.36 2.53 -4.59Q1.98 -4.83 1.66 -5.12Q1.35 -5.41 1.18 -5.80Q1.01 -6.18 1.01 -6.68Q1.01 -7.83 1.89 -8.45Q2.77 -9.08 4.41 -9.08Q5.93 -9.08 6.74 -8.61Q7.54 -8.14 7.87 -7.02L6.67 -6.81Q6.48 -7.52 5.92 -7.84Q5.37 -8.16 4.39 -8.16Q3.32 -8.16 2.75 -7.81Q2.19 -7.45 2.19 -6.75Q2.19 -6.34 2.41 -6.07Q2.63 -5.80 3.04 -5.61Q3.45 -5.42 4.68 -5.15Q5.10 -5.05 5.51 -4.95Q5.92 -4.86 6.29 -4.72Q6.66 -4.58 6.99 -4.40Q7.32 -4.21 7.56 -3.95Q7.80 -3.68 7.94 -3.32Q8.07 -2.96 8.07 -2.47Z M19.56 -4.51Q19.56 -3.11 19.03 -2.06Q18.49 -1.00 17.49 -0.44Q16.48 0.13 15.12 0.13Q13.74 0.13 12.74 -0.43Q11.74 -0.99 11.22 -2.05Q10.69 -3.10 10.69 -4.51Q10.69 -6.66 11.86 -7.87Q13.04 -9.08 15.13 -9.08Q16.50 -9.08 17.50 -8.53Q18.50 -7.99 19.03 -6.96Q19.56 -5.92 19.56 -4.51ZM18.33 -4.51Q18.33 -6.18 17.49 -7.13Q16.66 -8.09 15.13 -8.09Q13.60 -8.09 12.76 -7.15Q11.92 -6.21 11.92 -4.51Q11.92 -2.83 12.77 -1.84Q13.62 -0.86 15.12 -0.86Q16.67 -0.86 17.50 -1.81Q18.33 -2.77 18.33 -4.51Z M22.63 0.00L22.63 -8.94L23.84 -8.94L23.84 -0.99L28.36 -0.99L28.36 0.00L22.63 0.00Z M35.00 0.13Q33.91 0.13 33.09 -0.27Q32.27 -0.67 31.82 -1.43Q31.37 -2.20 31.37 -3.25L31.37 -8.94L32.58 -8.94L32.58 -3.35Q32.58 -2.13 33.20 -1.49Q33.82 -0.86 35.00 -0.86Q36.20 -0.86 36.87 -1.51Q37.54 -2.17 37.54 -3.43L37.54 -8.94L38.75 -8.94L38.75 -3.36Q38.75 -2.28 38.29 -1.49Q37.83 -0.70 36.99 -0.29Q36.15 0.13 35.00 0.13Z M45.78 -8.09Q44.29 -8.09 43.46 -7.13Q42.64 -6.18 42.64 -4.51Q42.64 -2.87 43.50 -1.87Q44.36 -0.87 45.83 -0.87Q47.70 -0.87 48.65 -2.73L49.64 -2.23Q49.09 -1.08 48.09 -0.48Q47.09 0.13 45.77 0.13Q44.42 0.13 43.43 -0.43Q42.44 -1.00 41.92 -2.04Q41.41 -3.09 41.41 -4.51Q41.41 -6.65 42.56 -7.87Q43.72 -9.08 45.76 -9.08Q47.19 -9.08 48.15 -8.52Q49.11 -7.96 49.56 -6.86L48.41 -6.48Q48.10 -7.26 47.41 -7.67Q46.72 -8.09 45.78 -8.09ZM47.05 1.61Q47.05 2.75 45.31 2.75Q44.95 2.75 44.74 2.73L44.74 2.11Q45.05 2.15 45.28 2.15Q46.22 2.15 46.22 1.63Q46.22 1.14 45.37 1.14Q45.10 1.14 45.01 1.16L45.42 0.00L46.10 0.00L45.85 0.64Q46.45 0.65 46.75 0.91Q47.05 1.17 47.05 1.61Z M61.13 -4.51Q61.13 -3.11 60.59 -2.06Q60.06 -1.00 59.05 -0.44Q58.05 0.13 56.69 0.13Q55.31 0.13 54.31 -0.43Q53.31 -0.99 52.78 -2.05Q52.26 -3.10 52.26 -4.51Q52.26 -6.66 53.43 -7.87Q54.60 -9.08 56.70 -9.08Q58.07 -9.08 59.07 -8.53Q60.07 -7.99 60.60 -6.96Q61.13 -5.92 61.13 -4.51ZM59.89 -4.51Q59.89 -6.18 59.06 -7.13Q58.22 -8.09 56.70 -8.09Q55.16 -8.09 54.32 -7.15Q53.49 -6.21 53.49 -4.51Q53.49 -2.83 54.33 -1.84Q55.18 -0.86 56.69 -0.86Q58.24 -0.86 59.06 -1.81Q59.89 -2.77 59.89 -4.51ZM57.61 -9.71Q57.34 -9.71 57.07 -9.83Q56.81 -9.95 56.56 -10.09Q56.31 -10.23 56.09 -10.35Q55.86 -10.47 55.66 -10.47Q55.32 -10.47 55.14 -10.27Q54.97 -10.07 54.92 -9.71L54.34 -9.71Q54.41 -10.36 54.56 -10.69Q54.71 -11.03 54.97 -11.22Q55.23 -11.41 55.63 -11.41Q55.91 -11.41 56.17 -11.30Q56.44 -11.18 56.69 -11.04Q56.93 -10.89 57.15 -10.78Q57.37 -10.66 57.56 -10.66Q58.20 -10.66 58.31 -11.41L58.89 -11.41Q58.78 -10.47 58.46 -10.09Q58.15 -9.71 57.61 -9.71Z M64.20 0.00L64.20 -8.94L70.98 -8.94L70.98 -7.95L65.41 -7.95L65.41 -5.08L70.60 -5.08L70.60 -4.11L65.41 -4.11L65.41 -0.99L71.24 -0.99L71.24 0.00L64.20 0.00Z M81.32 -2.47Q81.32 -1.23 80.35 -0.55Q79.38 0.13 77.62 0.13Q74.35 0.13 73.83 -2.15L75.01 -2.38Q75.21 -1.57 75.87 -1.20Q76.53 -0.82 77.67 -0.82Q78.84 -0.82 79.48 -1.22Q80.12 -1.62 80.12 -2.41Q80.12 -2.84 79.92 -3.12Q79.72 -3.39 79.36 -3.57Q78.99 -3.75 78.49 -3.87Q77.99 -3.99 77.38 -4.13Q76.32 -4.36 75.77 -4.59Q75.22 -4.83 74.91 -5.12Q74.59 -5.41 74.42 -5.80Q74.25 -6.18 74.25 -6.68Q74.25 -7.83 75.13 -8.45Q76.01 -9.08 77.65 -9.08Q79.17 -9.08 79.98 -8.61Q80.79 -8.14 81.11 -7.02L79.91 -6.81Q79.72 -7.52 79.17 -7.84Q78.61 -8.16 77.64 -8.16Q76.56 -8.16 76.00 -7.81Q75.43 -7.45 75.43 -6.75Q75.43 -6.34 75.65 -6.07Q75.87 -5.80 76.28 -5.61Q76.70 -5.42 77.93 -5.15Q78.34 -5.05 78.75 -4.95Q79.16 -4.86 79.53 -4.72Q79.91 -4.58 80.23 -4.40Q80.56 -4.21 80.80 -3.95Q81.05 -3.68 81.18 -3.32Q81.32 -2.96 81.32 -2.47Z M87.41 0.00L87.41 -8.94L94.20 -8.94L94.20 -7.95L88.63 -7.95L88.63 -5.08L93.82 -5.08L93.82 -4.11L88.63 -4.11L88.63 -0.99L94.46 -0.99L94.46 0.00L87.41 0.00Z M105.13 0.00L105.13 -5.97Q105.13 -6.96 105.19 -7.87Q104.88 -6.74 104.63 -6.09L102.32 0.00L101.47 0.00L99.13 -6.09L98.77 -7.17L98.56 -7.87L98.58 -7.17L98.60 -5.97L98.60 0.00L97.53 0.00L97.53 -8.94L99.12 -8.94L101.50 -2.74Q101.63 -2.37 101.74 -1.94Q101.86 -1.51 101.90 -1.32Q101.95 -1.57 102.11 -2.09Q102.28 -2.61 102.33 -2.74L104.67 -8.94L106.22 -8.94L106.22 0.00L105.13 0.00Z M115.82 -7.95L115.82 0.00L114.61 0.00L114.61 -7.95L111.54 -7.95L111.54 -8.94L118.89 -8.94L118.89 -7.95L115.82 -7.95Z M121.96 0.00L121.96 -8.94L128.75 -8.94L128.75 -7.95L123.17 -7.95L123.17 -5.08L128.37 -5.08L128.37 -4.11L123.17 -4.11L123.17 -0.99L129.01 -0.99L129.01 0.00L121.96 0.00Z M136.03 -8.09Q134.55 -8.09 133.72 -7.13Q132.90 -6.18 132.90 -4.51Q132.90 -2.87 133.76 -1.87Q134.62 -0.87 136.09 -0.87Q137.96 -0.87 138.91 -2.73L139.90 -2.23Q139.35 -1.08 138.35 -0.48Q137.35 0.13 136.03 0.13Q134.68 0.13 133.69 -0.43Q132.70 -1.00 132.18 -2.04Q131.67 -3.09 131.67 -4.51Q131.67 -6.65 132.82 -7.87Q133.98 -9.08 136.02 -9.08Q137.45 -9.08 138.41 -8.52Q139.37 -7.96 139.82 -6.86L138.67 -6.48Q138.36 -7.26 137.67 -7.67Q136.98 -8.09 136.03 -8.09Z M148.77 0.00L143.98 -7.62L144.01 -7.00L144.05 -5.94L144.05 0.00L142.97 0.00L142.97 -8.94L144.38 -8.94L149.21 -1.28Q149.14 -2.52 149.14 -3.08L149.14 -8.94L150.23 -8.94L150.23 0.00L148.77 0.00Z M161.72 -4.51Q161.72 -3.11 161.18 -2.06Q160.65 -1.00 159.64 -0.44Q158.64 0.13 157.27 0.13Q155.90 0.13 154.90 -0.43Q153.90 -0.99 153.37 -2.05Q152.84 -3.10 152.84 -4.51Q152.84 -6.66 154.02 -7.87Q155.19 -9.08 157.29 -9.08Q158.65 -9.08 159.65 -8.53Q160.66 -7.99 161.19 -6.96Q161.72 -5.92 161.72 -4.51ZM160.48 -4.51Q160.48 -6.18 159.65 -7.13Q158.81 -8.09 157.29 -8.09Q155.75 -8.09 154.91 -7.15Q154.07 -6.21 154.07 -4.51Q154.07 -2.83 154.92 -1.84Q155.77 -0.86 157.27 -0.86Q158.82 -0.86 159.65 -1.81Q160.48 -2.77 160.48 -4.51Z M164.78 0.00L164.78 -8.94L166.00 -8.94L166.00 -0.99L170.52 -0.99L170.52 0.00L164.78 0.00Z M182.01 -4.51Q182.01 -3.11 181.47 -2.06Q180.93 -1.00 179.93 -0.44Q178.93 0.13 177.56 0.13Q176.19 0.13 175.19 -0.43Q174.19 -0.99 173.66 -2.05Q173.13 -3.10 173.13 -4.51Q173.13 -6.66 174.31 -7.87Q175.48 -9.08 177.58 -9.08Q178.94 -9.08 179.94 -8.53Q180.95 -7.99 181.48 -6.96Q182.01 -5.92 182.01 -4.51ZM180.77 -4.51Q180.77 -6.18 179.94 -7.13Q179.10 -8.09 177.58 -8.09Q176.04 -8.09 175.20 -7.15Q174.36 -6.21 174.36 -4.51Q174.36 -2.83 175.21 -1.84Q176.06 -0.86 177.56 -0.86Q179.11 -0.86 179.94 -1.81Q180.77 -2.77 180.77 -4.51Z M184.66 -4.51Q184.66 -6.69 185.83 -7.88Q187.00 -9.08 189.11 -9.08Q190.60 -9.08 191.52 -8.58Q192.45 -8.07 192.95 -6.97L191.79 -6.63Q191.42 -7.39 190.74 -7.74Q190.08 -8.09 189.08 -8.09Q187.53 -8.09 186.71 -7.15Q185.89 -6.21 185.89 -4.51Q185.89 -2.82 186.76 -1.84Q187.63 -0.86 189.17 -0.86Q190.04 -0.86 190.80 -1.12Q191.56 -1.39 192.03 -1.85L192.03 -3.46L189.36 -3.46L189.36 -4.47L193.15 -4.47L193.15 -1.39Q192.44 -0.67 191.40 -0.27Q190.37 0.13 189.17 0.13Q187.76 0.13 186.75 -0.43Q185.73 -0.99 185.20 -2.04Q184.66 -3.09 184.66 -4.51Z M196.35 0.00L196.35 -8.94L197.56 -8.94L197.56 0.00L196.35 0.00Z M206.97 0.00L205.95 -2.62L201.87 -2.62L200.84 0.00L199.59 0.00L203.24 -8.94L204.61 -8.94L208.21 0.00L206.97 0.00ZM203.91 -8.03L203.85 -7.85Q203.69 -7.32 203.38 -6.50L202.24 -3.56L205.59 -3.56L204.44 -6.51Q204.26 -6.95 204.08 -7.50L203.91 -8.03Z" fill="#94A3B8"/></svg>